<?xml version="1.0" encoding="UTF-8"?>
<svg width="410" height="404" viewBox="0 0 410 404" fill="none" xmlns="http://www.w3.org/2000/svg">
<path d="M399.641 59.5246L215.643 388.545C211.844 395.313 202.05 395.352 198.192 388.62L10.5817 59.5563C6.38087 52.2271 12.6807 43.2665 21.0281 44.7586L205.223 77.8263C206.398 78.0344 207.601 78.0323 208.776 77.8199L389.119 44.7835C397.439 43.2894 403.768 52.173 399.648 59.5133L399.641 59.5246Z" fill="url(#paint0_linear)"/>
<path d="M292.965 1.5744L156.801 28.2553C155.203 28.5716 153.943 29.7801 153.604 31.3701L118.426 197.162C118.004 199.178 119.88 200.875 121.836 200.344L159.281 190.274C161.357 189.706 163.356 191.574 162.873 193.661L149.227 253.153C148.725 255.34 150.914 257.246 153.023 256.496L175.663 248.529C177.779 247.777 179.973 249.693 179.452 251.889L164.426 315.767C163.873 318.136 166.733 319.86 168.469 318.149L170.365 316.302L268.683 115.86C269.742 113.708 267.87 111.229 265.49 111.686L227.315 118.942C225.177 119.345 223.37 117.299 224.048 115.217L298.007 1.83702C299.114 0.0875797 297.432 -1.91696 295.532 -1.54258e-05L292.965 1.5744Z" fill="url(#paint1_linear)"/>
<defs>
<linearGradient id="paint0_linear" x1="6.00017" y1="33.0003" x2="235" y2="344" gradientUnits="userSpaceOnUse">
<stop stop-color="#41D1FF"/>
<stop offset="1" stop-color="#BD34FE"/>
</linearGradient>
<linearGradient id="paint1_linear" x1="194.651" y1="8.81818" x2="236.076" y2="292.989" gradientUnits="userSpaceOnUse">
<stop stop-color="#FFEA83"/>
<stop offset="0.0833333" stop-color="#FFDD35"/>
<stop offset="1" stop-color="#FFA800"/>
</linearGradient>
</defs>
</svg>
